<?xml version="1.0" encoding="UTF-8" standalone="no"?>
<svg
   width="16"
   height="16"
   fill="currentColor"
   class="bi bi-list-ul"
   viewBox="0 0 16 16"
   version="1.1"
   id="svg827"
   sodipodi:docname="list.svg"
   inkscape:version="1.1.2 (0a00cf5339, 2022-02-04)"
   xmlns:inkscape="http://www.inkscape.org/namespaces/inkscape"
   xmlns:sodipodi="http://sodipodi.sourceforge.net/DTD/sodipodi-0.dtd"
   xmlns="http://www.w3.org/2000/svg"
   xmlns:svg="http://www.w3.org/2000/svg">
  <defs
     id="defs831" />
  <sodipodi:namedview
     id="namedview829"
     pagecolor="#ffffff"
     bordercolor="#666666"
     borderopacity="1.0"
     inkscape:pageshadow="2"
     inkscape:pageopacity="0.0"
     inkscape:pagecheckerboard="0"
     showgrid="false"
     inkscape:zoom="45.4375"
     inkscape:cx="0.2090784"
     inkscape:cy="8"
     inkscape:window-width="1585"
     inkscape:window-height="926"
     inkscape:window-x="340"
     inkscape:window-y="174"
     inkscape:window-maximized="0"
     inkscape:current-layer="svg827" />
  <path
     fill-rule="evenodd"
     d="M5 11.5a.5.5 0 0 1 .5-.5h9a.5.5 0 0 1 0 1h-9a.5.5 0 0 1-.5-.5zm0-4a.5.5 0 0 1 .5-.5h9a.5.5 0 0 1 0 1h-9a.5.5 0 0 1-.5-.5zm0-4a.5.5 0 0 1 .5-.5h9a.5.5 0 0 1 0 1h-9a.5.5 0 0 1-.5-.5zm-3 1a1 1 0 1 0 0-2 1 1 0 0 0 0 2zm0 4a1 1 0 1 0 0-2 1 1 0 0 0 0 2zm0 4a1 1 0 1 0 0-2 1 1 0 0 0 0 2z"
     id="path825"
     style="fill:#ffffff" />
</svg>
