<?xml version="1.0" encoding="UTF-8" standalone="no"?>
<svg
   viewBox="0 0 211 64"
   version="1.1"
   id="svg4"
   sodipodi:docname="logo.svg"
   inkscape:version="1.1.2 (0a00cf5339, 2022-02-04)"
   xmlns:inkscape="http://www.inkscape.org/namespaces/inkscape"
   xmlns:sodipodi="http://sodipodi.sourceforge.net/DTD/sodipodi-0.dtd"
   xmlns="http://www.w3.org/2000/svg"
   xmlns:svg="http://www.w3.org/2000/svg">
  <defs
     id="defs8" />
  <sodipodi:namedview
     id="namedview6"
     pagecolor="#ffffff"
     bordercolor="#666666"
     borderopacity="1.0"
     inkscape:pageshadow="2"
     inkscape:pageopacity="0.0"
     inkscape:pagecheckerboard="0"
     showgrid="false"
     inkscape:zoom="3.1232228"
     inkscape:cx="127.27238"
     inkscape:cy="7.5242792"
     inkscape:window-width="2340"
     inkscape:window-height="1298"
     inkscape:window-x="3151"
     inkscape:window-y="441"
     inkscape:window-maximized="0"
     inkscape:current-layer="svg4" />
  <path
     d="M 158.77,43.954 V 34.3 h 12.488 c 1.844,0 3.286,-1.282 3.286,-2.923 0,-1.664 -1.442,-2.966 -3.286,-2.966 H 158.77 v -8.363 h 13.2 c 1.844,0 3.285,-1.262 3.285,-2.87 0,-1.69 -1.441,-3.016 -3.286,-3.016 h -15.88 c -2.166,0 -3.994,1.653 -3.994,3.611 v 28.454 c 0,1.958 1.828,3.61 3.995,3.61 h 16.268 c 1.81,0 3.28,-1.33 3.28,-2.966 0,-1.609 -1.47,-2.916 -3.28,-2.916 H 158.77 Z M 102.725,13.663 c -1.48,0 -2.883,0.89 -3.42,2.164 l -12.05,30.495 c -0.126169,0.317358 -0.191963,0.655487 -0.194,0.997 0,1.634 1.478,3.017 3.228,3.017 1.398,0 2.582,-0.746 3.088,-1.965 l 2.908,-7.274 h 12.88 l 2.852,7.284 c 0.495,1.17 1.732,1.955 3.088,1.955 1.806,0 3.28,-1.354 3.28,-3.017 0,-0.26 -0.05,-0.683 -0.194,-1.005 l -12.046,-30.43 c -0.494,-1.285 -1.932,-2.221 -3.42,-2.221 z m 0,11.153 4.124,10.398 h -8.248 z m 41.316,25.02 c 1.84,0 3.229,-1.274 3.229,-2.966 0,-1.636 -1.442,-2.916 -3.283,-2.916 H 130.399 V 16.782 c 0,-1.692 -1.529,-3.12 -3.34,-3.12 -1.807,0 -3.333,1.407 -3.333,3.07 v 29.44 c 0,1.99 1.826,3.664 3.992,3.664 z m 66.36,-2.517 c -0.005,-0.614713 -0.20828,-1.21139 -0.58,-1.701 L 199.45,31.875 209.604,18.38 c 0.379,-0.516 0.582,-1.1 0.582,-1.7 0,-1.608 -1.512,-3.017 -3.229,-3.017 -1.075,0 -2.111,0.507 -2.706,1.321 l -8.634,11.69 -8.628,-11.69 c -0.618,-0.838 -1.605,-1.321 -2.71,-1.321 -1.777,0 -3.283,1.38 -3.283,3.017 0,0.6 0.202,1.19 0.58,1.705 l 10.154,13.49 -10.32,13.748 c -0.36936,0.48863 -0.57104,1.083486 -0.575,1.696 0,1.634 1.5,3.017 3.28,3.017 1.073,0 2.11,-0.506 2.704,-1.319 l 8.798,-11.941 8.797,11.941 c 0.617,0.839 1.603,1.319 2.708,1.319 1.777,0 3.28,-1.383 3.28,-3.017 z M 65.123,28.925 c -0.163,0.159 -2.862,2.755 -7.437,5.395 -5.112,2.954 -12.503,5.93 -21.41,5.93 -1.583,0 -3.122,-0.087 -4.607,-0.268 -1.248,-0.147 -2.11,-0.304 -2.116,-0.299 -0.035,0 -2.763,1.046 -3.545,3.774 -0.787,2.742 0.336,4.479 0.35,4.482 2,0.438 6.621,1.014 9.918,1.014 4.607,0 8.846,-0.65 12.666,-1.663 0.028,0.579 0.042,1.151 0.047,1.698 0.02618,2.362482 -0.136004,4.723291 -0.485,7.06 -0.09432,0.641564 -0.207699,1.28018 -0.34,1.915 -0.046,0.212 -0.084,0.364 -0.106,0.462 -0.647,2.414 0.728,4.8 3.049,5.423 2.321255,0.625758 4.710277,-0.748735 5.336,-3.07 0.069,-0.272 1.307,-4.924 1.253,-11.857 -0.0157,-1.567698 -0.09677,-3.134059 -0.243,-4.695 1.563918,-0.716922 3.094187,-1.505081 4.586,-2.362 5.783,-3.347 9.048,-6.597 9.243,-6.788 1.388024,-1.394766 1.670655,-3.54604 0.69,-5.252 -0.191534,-0.330359 -0.42627,-0.6337 -0.698,-0.902 -1.697796,-1.700607 -4.453864,-1.699262 -6.15,0.003 z M 23.56,49.382 c 0,-5.908 1.117,-13.794 5.572,-21.506 0.768121,-1.334677 1.614256,-2.622912 2.534,-3.858 0.755,-1.008 1.316,-1.675 1.321,-1.685 0.015,-0.029 0.47,-2.911 -1.497,-4.957 -1.98,-2.05 -4.049,-1.949 -4.058,-1.936 -1.378,1.512 -4.188,5.23 -5.84,8.082 -2.134469,3.706217 -3.778234,7.674112 -4.89,11.804 C 16.197636,35.065688 15.698536,34.7953 15.205,34.515 13.147483,33.355293 11.185018,32.034499 9.336,30.565 8.8251992,30.163047 8.3282441,29.743803 7.846,29.308 7.69,29.165 7.57,29.06 7.503,28.991 c -1.77,-1.77 -4.52,-1.77 -6.226,-0.073 -1.70096212,1.699802 -1.70230512,4.456542 -0.003,6.158 0.198,0.194 3.612,3.593 9.643,7.013 1.363015,0.770774 2.757921,1.48374 4.181,2.137 -0.17,1.83 -0.243,3.561 -0.243,5.156 0.003,6.675 1.187,11.13 1.257,11.396 1.506666,5.605331 9.914666,3.345331 8.408,-2.26 -0.06,-0.216 -0.963,-3.852 -0.96,-9.136 z m 4.019,-37.084 c 5.119,2.954 11.39,7.861 15.84,15.578 0.773074,1.330845 1.464679,2.707374 2.071,4.122 0.498,1.157 0.798,1.976 0.802,1.985 0.019,0.03 2.286,1.868 5.042,1.181 2.762,-0.686 3.713,-2.529 3.708,-2.543 -0.624,-1.95 -2.436,-6.242 -4.082,-9.1 -2.143838,-3.6997 -4.757554,-7.106336 -7.776,-10.135 0.494,-0.313 0.975,-0.614 1.45,-0.89 2.032014,-1.203826 4.156741,-2.243785 6.354,-3.11 0.79,-0.313 1.42,-0.529 1.834,-0.657 0.201,-0.07 0.353,-0.116 0.444,-0.143 2.416,-0.65 3.798,-3.032 3.177,-5.353 C 55.824757,0.910466 53.440179,-0.47057371 51.118,0.149 50.846,0.224 46.196,1.477 40.223,4.993 38.870502,5.7874449 37.553566,6.6409347 36.276,7.551 34.873006,6.5516822 33.423734,5.6189827 31.933,4.756 26.15,1.421 21.7,0.22 21.438,0.15 c -2.324056,-0.62108211 -4.711483,0.75979313 -5.332,3.084 -0.616024,2.3217064 0.763643,4.7039128 3.084,5.325 0.216,0.06 3.814,1.098 8.389,3.74 z"
     fill="#FFF"
     fill-rule="evenodd"
     id="path2"
     style="fill:#ffffff;fill-opacity:1"
     sodipodi:nodetypes="ccsssccssssssssssccscccsccccssccsccccssscssssssccccsscccssccccscccsccccsccccsccccccccccccccccccccccccccccccccccccccccccccccccccccccccc" />
</svg>
