<?xml version="1.0" encoding="UTF-8" standalone="no"?>
<svg
   width="16"
   height="16"
   fill="currentColor"
   class="bi bi-music-player-fill"
   viewBox="0 0 16 16"
   version="1.1"
   id="svg829"
   sodipodi:docname="podcast.svg"
   inkscape:version="1.1.2 (0a00cf5339, 2022-02-04)"
   xmlns:inkscape="http://www.inkscape.org/namespaces/inkscape"
   xmlns:sodipodi="http://sodipodi.sourceforge.net/DTD/sodipodi-0.dtd"
   xmlns="http://www.w3.org/2000/svg"
   xmlns:svg="http://www.w3.org/2000/svg">
  <defs
     id="defs833" />
  <sodipodi:namedview
     id="namedview831"
     pagecolor="#ffffff"
     bordercolor="#666666"
     borderopacity="1.0"
     inkscape:pageshadow="2"
     inkscape:pageopacity="0.0"
     inkscape:pagecheckerboard="0"
     showgrid="false"
     inkscape:zoom="45.4375"
     inkscape:cx="0.19807428"
     inkscape:cy="8"
     inkscape:window-width="2304"
     inkscape:window-height="1184"
     inkscape:window-x="0"
     inkscape:window-y="33"
     inkscape:window-maximized="1"
     inkscape:current-layer="svg829" />
  <path
     d="M8 12a1 1 0 1 0 0-2 1 1 0 0 0 0 2z"
     id="path825"
     style="fill:#ffffff" />
  <path
     d="M4 0a2 2 0 0 0-2 2v12a2 2 0 0 0 2 2h8a2 2 0 0 0 2-2V2a2 2 0 0 0-2-2H4zm1 2h6a1 1 0 0 1 1 1v2.5a1 1 0 0 1-1 1H5a1 1 0 0 1-1-1V3a1 1 0 0 1 1-1zm3 12a3 3 0 1 1 0-6 3 3 0 0 1 0 6z"
     id="path827"
     style="fill:#ffffff" />
</svg>
