<?xml version="1.0" standalone="no"?>
<!DOCTYPE svg PUBLIC "-//W3C//DTD SVG 20010904//EN"
 "http://www.w3.org/TR/2001/REC-SVG-20010904/DTD/svg10.dtd">
<svg version="1.0" xmlns="http://www.w3.org/2000/svg"
 width="700.000000pt" height="700.000000pt" viewBox="0 0 700.000000 700.000000"
 preserveAspectRatio="xMidYMid meet">
<metadata>
Created by potrace 1.14, written by Peter Selinger 2001-2017
</metadata>
<g transform="translate(0.000000,700.000000) scale(0.100000,-0.100000)"
fill="#000000" stroke="none">
<path d="M1865 6577 c-78 -20 -144 -58 -200 -114 -162 -161 -167 -407 -12
-579 56 -61 111 -92 250 -138 98 -33 281 -104 367 -143 90 -41 317 -157 341
-174 15 -10 30 -19 33 -19 10 0 213 -127 316 -198 100 -68 281 -205 340 -257
19 -16 57 -50 85 -75 62 -55 296 -289 350 -350 296 -336 561 -769 707 -1158
11 -29 29 -62 41 -73 35 -33 162 -89 240 -105 172 -37 380 26 511 152 71 70
79 87 62 137 -88 256 -282 673 -416 897 -112 187 -338 504 -446 626 -11 12
-44 50 -74 84 -30 35 -86 95 -123 134 -79 81 -85 67 58 151 278 164 512 272
811 375 172 58 248 116 309 233 120 232 -19 532 -274 591 -103 24 -168 15
-351 -47 -376 -127 -795 -335 -1147 -570 l-142 -95 -148 98 c-370 245 -795
455 -1173 579 -141 47 -236 58 -315 38z"/>
<path d="M2617 5063 c-91 -100 -274 -344 -397 -528 -259 -391 -450 -809 -593
-1300 -9 -28 -20 -49 -27 -47 -10 2 -83 43 -260 144 -48 28 -266 174 -315 211
-105 81 -235 187 -283 231 -108 101 -184 136 -304 142 -128 6 -227 -33 -316
-123 -79 -79 -114 -163 -118 -277 -4 -147 43 -246 172 -361 37 -33 72 -65 78
-71 47 -44 210 -171 326 -253 47 -33 90 -64 95 -68 75 -62 450 -280 648 -377
104 -51 135 -71 132 -84 -24 -130 -25 -759 0 -965 2 -18 6 -59 10 -91 3 -33 8
-73 10 -90 3 -17 7 -44 9 -61 37 -285 93 -473 163 -550 156 -172 446 -174 622
-5 93 90 133 244 100 387 -21 94 -45 225 -54 293 -3 25 -8 61 -10 80 -43 307
-39 808 10 1130 2 14 7 45 10 70 10 77 15 101 40 220 127 604 375 1146 734
1605 l86 110 1 74 c2 133 -32 244 -106 350 -86 123 -247 221 -392 237 -32 4
-41 0 -71 -33z"/>
<path d="M6473 3905 c-79 -22 -120 -46 -203 -120 -693 -618 -1627 -1014 -2520
-1072 -188 -12 -530 -6 -630 11 -14 3 -54 7 -90 11 -36 3 -72 7 -80 10 -63 18
-105 14 -164 -18 -81 -42 -204 -165 -239 -237 -73 -153 -83 -366 -22 -493 14
-30 22 -35 78 -45 76 -15 243 -39 317 -47 30 -3 73 -7 95 -10 47 -6 119 -12
235 -21 160 -12 506 -7 675 11 22 2 65 6 95 9 30 4 64 8 75 10 11 2 47 7 80
11 33 3 105 15 160 25 55 11 111 21 125 24 14 2 76 16 138 31 84 21 116 25
121 16 8 -13 6 -403 -3 -501 -3 -36 -8 -96 -11 -135 -4 -38 -8 -77 -10 -85 -2
-8 -7 -38 -10 -66 -3 -28 -8 -61 -10 -74 -3 -13 -7 -40 -10 -60 -3 -19 -14
-73 -24 -120 -49 -222 25 -409 200 -505 59 -32 177 -58 227 -50 135 22 206 56
281 136 67 71 109 186 140 379 6 36 13 74 15 86 2 12 7 45 11 74 4 29 8 62 10
72 2 11 7 49 10 86 3 37 8 81 10 97 25 190 25 604 2 952 -2 19 23 35 183 116
284 144 529 295 785 487 149 112 299 239 366 311 246 263 80 688 -276 705 -51
3 -99 -1 -132 -11z"/>
</g>
</svg>
